<?xml version="1.0" encoding="UTF-8" standalone="no"?>
<!-- Created with Inkscape (http://www.inkscape.org/) -->

<svg
   version="1.1"
   id="svg2"
   xml:space="preserve"
   width="248.63998"
   height="344"
   viewBox="0 0 248.63998 344"
   sodipodi:docname="pq_graph.svg"
   inkscape:version="1.1.2 (0a00cf5339, 2022-02-04)"
   xmlns:inkscape="http://www.inkscape.org/namespaces/inkscape"
   xmlns:sodipodi="http://sodipodi.sourceforge.net/DTD/sodipodi-0.dtd"
   xmlns="http://www.w3.org/2000/svg"
   xmlns:svg="http://www.w3.org/2000/svg"><defs
     id="defs6" /><sodipodi:namedview
     id="namedview4"
     pagecolor="#ffffff"
     bordercolor="#666666"
     borderopacity="1.0"
     inkscape:pageshadow="2"
     inkscape:pageopacity="0.0"
     inkscape:pagecheckerboard="0"
     showgrid="false"
     inkscape:zoom="2.8284271"
     inkscape:cx="136.11806"
     inkscape:cy="179.7819"
     inkscape:window-width="1850"
     inkscape:window-height="1016"
     inkscape:window-x="0"
     inkscape:window-y="0"
     inkscape:window-maximized="1"
     inkscape:current-layer="g10" /><g
     id="g8"
     inkscape:label="tmp2viz"
     transform="matrix(1.3333333,0,0,1.3333333,0,8.6e-6)"><g
       id="g10"><ellipse
         style="fill:#532f0f;fill-opacity:1;stroke-width:0.739944"
         id="path3517-3"
         cx="147.96481"
         cy="175.3528"
         rx="15.009222"
         ry="10.166613" /><path
         d="m 46.66,230.52 c -0.086,-0.329 -0.098,-0.739 -0.031,-0.915 0.07,-0.179 1.234,-0.543 2.726,-0.855 5.094,-1.059 11.809,-2.742 17.844,-4.473 18.414,-5.285 30.16,-10.332 42,-18.058 3.996,-2.606 10.317,-7.067 10.321,-7.285 0,-0.082 -0.59,-0.891 -1.313,-1.797 -0.723,-0.907 -1.234,-1.719 -1.141,-1.809 0.098,-0.09 2.711,-1.051 5.813,-2.14 3.101,-1.09 5.676,-2.004 5.715,-2.04 0.039,-0.031 -0.688,-0.828 -1.621,-1.773 -0.93,-0.945 -1.692,-1.82 -1.692,-1.945 0,-0.379 -0.336,-0.289 -4.875,1.3 -14.988,5.254 -24.777,7.133 -40.965,7.852 -3.859,0.168 -9.078,0.219 -13.261,0.125 l -6.899,-0.156 -0.023,1.144 c -0.012,0.629 -0.09,1.637 -0.18,2.239 l -0.156,1.089 -7.684,-3.304 c -4.222,-1.817 -7.605,-3.309 -7.519,-3.313 0.086,-0.004 3.676,-0.976 7.976,-2.168 4.297,-1.187 7.883,-2.16 7.961,-2.16 0.082,0 0.074,1.016 -0.019,2.254 l -0.168,2.254 6.117,0.176 c 6.121,0.176 10.871,0.078 18.535,-0.383 12.656,-0.762 22.067,-2.695 34.918,-7.172 2.313,-0.805 4.344,-1.551 4.516,-1.656 0.25,-0.156 0.211,-0.371 -0.184,-1.035 -1.519,-2.578 -2.387,-7.219 -1.945,-10.395 0.14,-1.012 0.316,-2.082 0.39,-2.379 0.129,-0.515 -0.109,-0.621 -4.5,-2.047 -11.906,-3.855 -21.386,-8.398 -29.148,-13.968 -7.711,-5.532 -16.961,-14.442 -24.348,-23.45 -0.98,-1.191 -1.863,-2.175 -1.968,-2.183 -0.102,-0.008 -0.739,0.422 -1.414,0.957 -0.676,0.535 -1.309,0.887 -1.403,0.781 -0.097,-0.105 -0.797,-2.082 -1.555,-4.391 -0.757,-2.312 -1.449,-4.277 -1.535,-4.375 -0.086,-0.093 -0.746,-0.011 -1.468,0.184 -41.486229,6.71076 -32.555,35.17066 -39.473,25.40566 -2.465,-3.473 -3.356,-42.09666 -3.184,-46.04666 0.121,-2.828 0.45,-4.093 1.676,-6.488 3.266,-6.379 10.899,-11.433 20.125,-13.324 7.551,-1.547 16.047,-1.141 22.723,1.09 2.953,0.984 5.472,2.125 7.336,3.316 0.754,0.481 1.484,0.875 1.625,0.875 0.14,0 2.812,-1.547 5.937,-3.441 18.692,-11.325 33.84,-19.008 59.848,-30.348 l 1.129,-0.492 -0.848,-1.961 c -0.469,-1.074 -0.789,-2.02 -0.711,-2.094 0.074,-0.078 3.809,-0.367 8.297,-0.644 l 8.16,-0.504 -0.539,0.504 c -0.5,0.472 -10.23,9.234 -11.363,10.234 -0.5,0.441 -0.504,0.438 -1.281,-1.426 -0.426,-1.027 -0.856,-1.949 -0.957,-2.054 -0.2,-0.211 -8.524,3.363 -17.657,7.578 -16.636,7.675 -26.043,12.625 -40.836,21.48 l -7.476,4.477 1.957,2.066 c 1.601,1.692 3.476,4.309 3.82,5.336 0.039,0.121 2.66,-1.238 5.824,-3.019 3.164,-1.782 5.77,-3.223 5.793,-3.204 0.024,0.02 0.207,0.996 0.414,2.168 0.204,1.176 0.407,2.168 0.45,2.211 0.062,0.063 51.785,-9.007 57.461,-10.078 1.882,-0.355 1.992,-0.301 1.992,0.949 0,0.399 -0.164,0.61 -0.539,0.696 -0.66,0.148 -23.645,4.211 -43.621,7.707 -8.118,1.422 -14.809,2.625 -14.868,2.672 -0.058,0.047 0.059,1.054 0.262,2.238 0.305,1.801 0.313,2.152 0.039,2.152 -0.18,0 -2.988,-0.433 -6.238,-0.965 -3.25,-0.527 -5.942,-0.929 -5.977,-0.89 -0.039,0.035 0.028,0.496 0.149,1.019 0.324,1.399 0.265,4.598 -0.11,6.114 -0.914,3.679 -2.363,6.121 -5.429,9.148 l -2.34,2.309 16.59,11.613 c 9.125,6.387 21.293,14.965 27.035,19.059 5.746,4.097 10.566,7.523 10.707,7.609 0.148,0.094 0.695,-0.453 1.277,-1.281 l 1.02,-1.442 2.644,3.793 c 1.457,2.086 2.735,3.887 2.844,4 0.109,0.117 0.852,-0.293 1.66,-0.914 1.645,-1.265 4.762,-2.98 6.735,-3.707 3.617,-1.328 7.246,-1.937 11.519,-1.937 7.535,0 13.645,2.003 18.965,6.214 3.473,2.747 6.371,7.008 7.359,10.817 0.551,2.125 0.555,6.555 0.008,8.64 -0.222,0.86 -0.894,47.19601 -1.492,48.38301 -5.555,11.067 1.12221,-20.69804 -35.191,-32.90201 -1.297,-0.438 -3.399,-1.348 -4.668,-2.027 -1.274,-0.68 -2.336,-1.204 -2.36,-1.164 -0.023,0.039 -1.383,2.23 -3.015,4.871 -1.633,2.64 -3.2,5.144 -3.481,5.566 l -0.508,0.766 -1.398,-1.782 c -0.832,-1.062 -1.504,-1.714 -1.668,-1.617 -0.149,0.09 -1.512,1.071 -3.027,2.18 -5.84,4.258 -13.711,9.168 -18.778,11.715 -10.301,5.172 -25.461,10.476 -40.445,14.144 -4.266,1.043 -10.887,2.508 -11.344,2.508 -0.125,0 -0.293,-0.269 -0.375,-0.601 z m 107.781,-35.434 c 6.278,-1.258 12.43,-5.012 15.489,-9.461 3.554,-5.164 4.031,-11.262 1.304,-16.676 -3.738,-7.422 -12.867,-12.258 -23.156,-12.258 -10.629,0 -19.801,5.094 -23.531,13.063 -2.567,5.484 -1.402,12.371 2.933,17.355 1.98853,1.89412 1.98445,1.87062 5.665,4.735 3.027,1.836 7.554,3.293 11.574,3.734 2.734,0.301 6.789,0.098 9.722,-0.492 z m -31.816,-25.707 c 0.445,-1.274 2.066,-3.848 3.273,-5.188 0.618,-0.687 1.075,-1.3 1.012,-1.363 -0.062,-0.058 -1.992,-0.66 -4.293,-1.332 -2.297,-0.668 -4.258,-1.297 -4.359,-1.391 -0.102,-0.093 0.254,-0.753 0.785,-1.468 0.769,-1.032 0.902,-1.352 0.66,-1.582 -0.883,-0.848 -26.254,-18.746 -51.125,-36.071 l -3.547,-2.468 -1.144,0.734 c -0.629,0.402 -2.242,1.254 -3.586,1.887 l -2.442,1.152 3.703,2.395 c 2.036,1.32 3.708,2.453 3.711,2.519 0.004,0.067 -0.589,0.59 -1.316,1.156 l -1.324,1.036 1.504,1.816 c 5.207,6.305 12.179,13.586 16.984,17.73 8.902,7.688 16.375,12.215 27.563,16.707 3.265,1.313 12.621,4.485 13.273,4.5 0.234,0.008 0.504,-0.304 0.668,-0.769 z M 48.434,122.52 c 5.403667,-0.81615 11.047078,-2.7001 15.285,-5.461 4.429,-3.004 7.41,-6.95 8.254,-10.93 0.557469,-3.19561 -0.231106,-7.05337 -1.325,-9.348 C 67.141,90.648 60.723,86.566 51.453,84.57 48.59,83.953 47.961,83.902 42.961,83.902 c -4.941,0.004 -5.66,0.059 -8.426,0.645 -6.597,1.398 -11.644,3.812 -15.43,7.375 -3.851,3.625 -5.445,6.957 -5.453,11.398 -0.007,3.922 1.43,7.184 4.688,10.637 2.898,3.066 8.656,6.188 14.058,7.613 4.625,1.223 11.321,1.621 16.036,0.95 z"
         style="fill:#532f0f;fill-opacity:1;fill-rule:nonzero;stroke:none"
         id="path12"
         sodipodi:nodetypes="cccccccccccsccccccccscsccccccccccccccccccccccccscccccccccccccccccccccsccccscccccccccccccccscccccccccccccccsccccscccccccccccccccccccccccccccccccccccccc" /><ellipse
         style="fill:#532f0f;stroke-width:0.739944;fill-opacity:1"
         id="path3517"
         cx="42.429115"
         cy="102.0099"
         rx="15.009222"
         ry="10.166613" /></g></g></svg>
